<mxfile host="app.diagrams.net" agent="Mozilla/5.0 (Macintosh; Intel Mac OS X 10_15_7) AppleWebKit/537.36 (KHTML, like Gecko) Chrome/127.0.0.0 Safari/537.36" version="24.8.0">
  <diagram name="Page-1" id="Es9m9n_g7NAClhTZE_hR">
    <mxGraphModel dx="607" dy="766" grid="1" gridSize="10" guides="1" tooltips="1" connect="1" arrows="1" fold="1" page="1" pageScale="1" pageWidth="827" pageHeight="1169" math="0" shadow="0">
      <root>
        <mxCell id="0" />
        <mxCell id="1" parent="0" />
        <mxCell id="G-tHBykxVCCYekR1XqNL-5" value="" style="edgeStyle=orthogonalEdgeStyle;rounded=0;orthogonalLoop=1;jettySize=auto;html=1;" edge="1" parent="1" source="G-tHBykxVCCYekR1XqNL-1" target="G-tHBykxVCCYekR1XqNL-4">
          <mxGeometry relative="1" as="geometry" />
        </mxCell>
        <mxCell id="G-tHBykxVCCYekR1XqNL-1" value="Start" style="html=1;dashed=0;whiteSpace=wrap;shape=mxgraph.dfd.start" vertex="1" parent="1">
          <mxGeometry x="276.5" y="70" width="80" height="30" as="geometry" />
        </mxCell>
        <mxCell id="G-tHBykxVCCYekR1XqNL-12" value="" style="edgeStyle=orthogonalEdgeStyle;rounded=0;orthogonalLoop=1;jettySize=auto;html=1;" edge="1" parent="1" source="G-tHBykxVCCYekR1XqNL-2" target="G-tHBykxVCCYekR1XqNL-11">
          <mxGeometry relative="1" as="geometry" />
        </mxCell>
        <mxCell id="G-tHBykxVCCYekR1XqNL-2" value="flag = Input&amp;nbsp;&lt;div&gt;&quot;which value would&lt;/div&gt;&lt;div&gt;you like to find?&quot;&amp;nbsp;&lt;/div&gt;" style="shape=parallelogram;perimeter=parallelogramPerimeter;whiteSpace=wrap;html=1;fixedSize=1;dashed=0;" vertex="1" parent="1">
          <mxGeometry x="251.5" y="280" width="130" height="70" as="geometry" />
        </mxCell>
        <mxCell id="G-tHBykxVCCYekR1XqNL-8" value="" style="edgeStyle=orthogonalEdgeStyle;rounded=0;orthogonalLoop=1;jettySize=auto;html=1;" edge="1" parent="1" source="G-tHBykxVCCYekR1XqNL-4" target="G-tHBykxVCCYekR1XqNL-2">
          <mxGeometry relative="1" as="geometry" />
        </mxCell>
        <mxCell id="G-tHBykxVCCYekR1XqNL-4" value="my_list = [&quot;a&quot;, &quot;b&quot;, &quot;w&quot;, &quot;t&quot;]&lt;div&gt;found = FALSE&lt;/div&gt;&lt;div&gt;index = 0&lt;/div&gt;" style="whiteSpace=wrap;html=1;dashed=0;" vertex="1" parent="1">
          <mxGeometry x="241.5" y="165" width="150" height="85" as="geometry" />
        </mxCell>
        <mxCell id="G-tHBykxVCCYekR1XqNL-14" style="edgeStyle=orthogonalEdgeStyle;rounded=0;orthogonalLoop=1;jettySize=auto;html=1;exitX=0.5;exitY=1;exitDx=0;exitDy=0;" edge="1" parent="1" source="G-tHBykxVCCYekR1XqNL-11" target="G-tHBykxVCCYekR1XqNL-13">
          <mxGeometry relative="1" as="geometry" />
        </mxCell>
        <mxCell id="G-tHBykxVCCYekR1XqNL-11" value="If (index &amp;lt; len(my_list))&lt;div&gt;and&amp;nbsp;&lt;/div&gt;&lt;div&gt;found == false&lt;/div&gt;" style="rhombus;whiteSpace=wrap;html=1;dashed=0;" vertex="1" parent="1">
          <mxGeometry x="219" y="380" width="195" height="130" as="geometry" />
        </mxCell>
        <mxCell id="G-tHBykxVCCYekR1XqNL-13" value="If my_list[index] == flag" style="rhombus;whiteSpace=wrap;html=1;dashed=0;" vertex="1" parent="1">
          <mxGeometry x="219" y="540" width="195" height="130" as="geometry" />
        </mxCell>
      </root>
    </mxGraphModel>
  </diagram>
</mxfile>
